# xmcd CD database file
#
# Track frame offsets:
#	150
#	19125
#	37950
#
# Disc length: 682 seconds
#
# Revision: 0
# Processed by: cddbd v1.5.2PL0 Copyright (c) Steve Scherf et al.
# Submitted via: CdAid (MTCDDB.DLL V2003.12.21)
#
DISCID=1902a803
DTITLE=Mike Krüger - Country Mike
DYEAR=1999
DGENRE=Country
TTITLE0=Der Nippel
TTITLE1=Mein Gott Walther
TTITLE2=Born in Quickborn
EXTD=ID3G:   2 YEAR: 1999
EXTT0=
EXTT1=
EXTT2=
PLAYORDER=
